<?xml version="1.0" encoding="UTF-8" standalone="no"?>
<svg
   viewBox="0 0 8.21875 11.068359"
   version="1.1"
   x="0px"
   y="0px"
   id="svg2"
   sodipodi:docname="keymaker_logo.svg"
   inkscape:version="1.3.2 (091e20e, 2023-11-25, custom)"
   width="8.21875"
   height="11.068359"
   inkscape:export-filename="keymaker_logo.svg"
   inkscape:export-xdpi="96"
   inkscape:export-ydpi="96"
   xmlns:inkscape="http://www.inkscape.org/namespaces/inkscape"
   xmlns:sodipodi="http://sodipodi.sourceforge.net/DTD/sodipodi-0.dtd"
   xmlns="http://www.w3.org/2000/svg"
   xmlns:svg="http://www.w3.org/2000/svg">
  <defs
     id="defs2" />
  <sodipodi:namedview
     id="namedview2"
     pagecolor="#ffffff"
     bordercolor="#000000"
     borderopacity="0.25"
     inkscape:showpageshadow="2"
     inkscape:pageopacity="0.0"
     inkscape:pagecheckerboard="0"
     inkscape:deskcolor="#d1d1d1"
     inkscape:zoom="45.254834"
     inkscape:cx="7.0710678"
     inkscape:cy="5.3806407"
     inkscape:window-width="1920"
     inkscape:window-height="991"
     inkscape:window-x="-9"
     inkscape:window-y="-9"
     inkscape:window-maximized="1"
     inkscape:current-layer="svg2" />
  <path
     id="path6"
     style="fill:#000000;fill-opacity:1;stroke:none;stroke-width:0;stroke-dasharray:none;stroke-opacity:1;paint-order:fill markers stroke"
     d="M 4.0722656,0 C 3.2572834,7.391e-4 2.5280249,0.4259072 2.0058593,1.0976563 1.687425,1.5073116 1.4453158,2.0098566 1.3027343,2.5664063 c -0.00555,0.00233 -0.012053,0.00351 -0.017578,0.00586 C 0.9153039,2.7292323 0.6070216,2.9168298 0.3789062,3.1464844 0.150791,3.37614 0,3.6610539 0,3.9707031 v 5.2031248 c 0,0.09677 0.015757,0.192462 0.042969,0.283203 v 0.002 c 0.1504604,0.517481 0.6711244,0.8902391 1.3515625,1.1582031 0.00886,0.0035 0.018412,0.0083 0.027344,0.01172 0.00431,0.0017 0.00936,0.0022 0.013672,0.0039 0.040008,0.01535 0.079811,0.0303 0.1210937,0.04492 0.01651,0.0058 0.034073,0.01185 0.050781,0.01758 0.037703,0.01292 0.076536,0.0248 0.1152343,0.03711 0.00942,0.003 0.017867,0.0068 0.027344,0.0098 0.031329,0.0098 0.061799,0.01992 0.09375,0.0293 0.033451,0.0098 0.067449,0.01991 0.1015625,0.0293 0.021749,0.006 0.044393,0.01179 0.066406,0.01758 0.025321,0.0067 0.050518,0.01311 0.076172,0.01953 0.031626,0.0079 0.063569,0.01591 0.095703,0.02344 0.020585,0.0048 0.041709,0.009 0.0625,0.01367 0.034869,0.0078 0.070041,0.01605 0.1054688,0.02344 0.025532,0.0053 0.050367,0.01053 0.076172,0.01563 0.02585,0.0051 0.051995,0.0088 0.078125,0.01367 0.034563,0.0064 0.070433,0.01352 0.1054688,0.01953 0.022251,0.0038 0.043956,0.0061 0.066406,0.0098 0.033462,0.0054 0.067693,0.01057 0.1015626,0.01563 0.026352,0.0039 0.051519,0.008 0.078125,0.01172 0.036727,0.0051 0.074157,0.01097 0.1113281,0.01563 0.019844,0.0025 0.040584,0.0036 0.060547,0.0059 0.041981,0.005 0.082492,0.01125 0.125,0.01563 0.016272,0.0017 0.034443,0.0023 0.050781,0.0039 0.042521,0.0041 0.083934,0.0081 0.1269531,0.01172 0.026353,0.0022 0.053538,0.0039 0.080078,0.0059 0.04086,0.003 0.081774,0.0073 0.1230469,0.0098 0.00495,2.89e-4 0.010678,-3.03e-4 0.015625,0 0.1171811,0.0069 0.2352529,0.01116 0.3554688,0.01367 0.067588,0.0014 0.1346773,0.002 0.203125,0.002 0.068442,0 0.1374905,-5.14e-4 0.2050781,-0.002 0.04246,-8.74e-4 0.082903,-0.0025 0.125,-0.0039 0.018389,-6.35e-4 0.038329,7.8e-4 0.056641,0 0.063516,-0.0025 0.1268369,-0.006 0.1894532,-0.0098 h 0.00195 c 0.04041,-0.0024 0.081078,-0.0068 0.1210937,-0.0098 0.02654,-0.002 0.051765,-0.0037 0.078125,-0.0059 0.1639436,-0.01355 0.3241558,-0.03085 0.4804688,-0.05273 0.022992,-0.0032 0.047492,-0.0063 0.070312,-0.0098 0.036303,-0.0054 0.071584,-0.01175 0.1074219,-0.01758 0.021537,-0.0035 0.043086,-0.0061 0.064453,-0.0098 0.035036,-0.006 0.068954,-0.0131 0.1035156,-0.01953 0.026141,-0.0049 0.052273,-0.0086 0.078125,-0.01367 0.025797,-0.0051 0.052604,-0.01031 0.078125,-0.01563 0.03543,-0.0074 0.070602,-0.01561 0.1054687,-0.02344 0.020796,-0.0047 0.041913,-0.0088 0.0625,-0.01367 0.032134,-0.0075 0.062127,-0.01553 0.09375,-0.02344 0.025665,-0.0064 0.052812,-0.01286 0.078125,-0.01953 0.022013,-0.0058 0.042704,-0.0116 0.064453,-0.01758 0.034115,-0.0094 0.068111,-0.01946 0.1015625,-0.0293 0.081378,-0.0239 0.1610151,-0.04968 0.2382812,-0.07617 0.016722,-0.0057 0.032318,-0.01173 0.048828,-0.01758 0.055017,-0.01948 0.1093675,-0.03978 0.1621094,-0.06055 0.7263036,-0.286017 1.2725731,-0.6904241 1.3789063,-1.2636721 0.010821,-0.05817 0.015625,-0.117334 0.015625,-0.177735 V 3.9707031 c 0,-0.04936 -0.00444,-0.096544 -0.011719,-0.1445312 -0.00113,-0.023182 -0.00461,-0.046265 -0.011719,-0.068359 C 8.1446663,3.5312271 8.0161807,3.322046 7.8417969,3.1464844 7.6136815,2.9168298 7.3034435,2.7292323 6.9335937,2.5722657 6.9199484,2.5664744 6.9044393,2.5623418 6.890625,2.5566407 6.497228,1.0875942 5.3826876,1.68e-4 4.0722656,0 Z m 0.00586,0.8730469 c 0.5857,0.00108 1.0920226,0.3227834 1.4609375,0.8398438 0.1141685,0.1600153 0.2142185,0.3383414 0.2988281,0.53125 C 5.3121512,2.1366904 4.7288586,2.0761719 4.109375,2.0761719 c -0.635511,0 -1.2333868,0.062947 -1.7695313,0.1757812 C 2.4593618,1.967984 2.6119082,1.7143158 2.7929687,1.5058594 3.1358735,1.1110707 3.57319,0.873984 4.0781256,0.8730469 Z m 0.03125,1.7324219 c 0.71061,0 1.3700897,0.084872 1.9257812,0.2265625 0.067062,0.2763117 0.105068,0.5686299 0.109375,0.8691406 v 0.046875 a 0.44661958,0.39525357 0 0 0 -0.00195,0.027344 0.44661958,0.39525357 0 0 0 0.00195,0.017578 0.44661958,0.39525357 0 0 0 0.4453125,0.3789062 0.44661958,0.39525357 0 0 0 0.4453125,-0.390625 h 0.00781 V 3.6914063 C 7.0420424,3.5240403 7.0303647,3.3593301 7.0117187,3.1972657 7.2008119,3.300046 7.3557283,3.4096785 7.4648437,3.5195313 7.5754023,3.6308361 7.6403018,3.7366809 7.6699219,3.8378907 7.5903509,4.0993031 7.2391167,4.4206257 6.6308593,4.6601563 5.9863701,4.9139557 5.0937712,5.0761719 4.109375,5.0761719 3.1249577,5.0761719 2.2343384,4.9139647 1.5898437,4.6601563 0.9815837,4.4206177 0.6285734,4.0993051 0.5488281,3.8378907 0.5784481,3.7366809 0.6433421,3.6308361 0.7539062,3.5195313 0.8588009,3.4139277 1.0065003,3.3083331 1.1855469,3.2089844 1.1684432,3.3671875 1.1591071,3.5280618 1.1582031,3.6914063 v 0.072266 A 0.44661958,0.39525357 0 0 0 1.15625,3.7910157 0.44661958,0.39525357 0 0 0 1.6015625,4.1855469 0.44661958,0.39525357 0 0 0 2.0488281,3.7910157 0.44661958,0.39525357 0 0 0 2.046875,3.7675781 l 0.00195,-0.074219 C 2.0530586,3.3982622 2.0879042,3.111297 2.1503906,2.8398438 2.7127523,2.6930172 3.3847147,2.6054688 4.1093756,2.6054688 Z M 0.5292969,4.6738281 c 0.2326925,0.1878148 0.5294551,0.3443288 0.8652343,0.4765626 0.7263116,0.2860284 1.6730993,0.4531249 2.7148438,0.453125 1.0417206,0 1.9885376,-0.1671086 2.7148437,-0.453125 C 7.1594505,5.0183759 7.4564853,4.8612459 7.6894531,4.6738281 v 0.9140626 c -0.00299,0.00814 -0.00563,0.015046 -0.00781,0.023437 -0.049913,0.269043 -0.406297,0.6153425 -1.0507838,0.8691411 -0.4414919,0.1738586 -1.0008044,0.3039455 -1.625,0.3691406 A 1.0717087,1.0275146 0 0 0 4.0761719,6.3242188 1.0717087,1.0275146 0 0 0 3.1484375,6.8417969 C 2.5515386,6.7744642 2.0157947,6.6482119 1.5898437,6.4804688 0.9453496,6.2266572 0.5869938,5.8803737 0.5371093,5.6113281 c -0.00218,-0.00839 -0.00482,-0.0153 -0.00781,-0.023437 z m 0,1.8222657 C 0.7619894,6.6839084 1.058752,6.8423756 1.3945312,6.9746094 1.8533561,7.155299 2.4008382,7.2878345 3.0039062,7.3613281 A 1.0717087,1.0275146 0 0 0 3.4980469,8.21875 c -0.00346,0.025646 -0.00586,0.051503 -0.00586,0.078125 V 8.6972659 C 2.7766298,8.6474399 2.1322594,8.5122719 1.6308593,8.3222657 0.990659,8.0796601 0.611653,7.7438201 0.5371093,7.4785157 c -0.00233,-0.00647 -0.00498,-0.013261 -0.00781,-0.019531 z m 7.1601562,0 V 7.3789063 C 7.6814831,7.3971323 7.675576,7.4159999 7.671875,7.4355469 7.621964,7.7045913 7.2636273,8.048937 6.6191406,8.3027344 6.0966009,8.5085089 5.4113477,8.6534539 4.6464843,8.7011719 V 8.296875 c 0,-0.025313 -7.771e-4,-0.049784 -0.00391,-0.074219 A 1.0717087,1.0275146 0 0 0 5.1445312,7.3691407 C 5.77531,7.2975865 6.3478095,7.1622181 6.8242187,6.9746094 7.1594505,6.8425946 7.4564853,6.6835124 7.6894531,6.4960938 Z m 0,1.8144531 v 0.863281 c 0,0.02722 -0.00294,0.05643 -0.00781,0.08399 -0.045231,0.243819 -0.341988,0.5489 -0.8769531,0.7929681 -0.025797,0.01168 -0.051344,0.02184 -0.078125,0.0332 -0.00439,0.0019 -0.00923,0.004 -0.013672,0.0059 -0.036513,0.01534 -0.073095,0.03019 -0.1113281,0.04492 -0.016589,0.0064 -0.033871,0.01326 -0.050781,0.01953 -0.018336,0.0068 -0.035996,0.01287 -0.054687,0.01953 -0.024368,0.0087 -0.04925,0.01696 -0.074219,0.02539 -0.029477,0.01 -0.059544,0.0197 -0.089844,0.0293 -0.012118,0.0038 -0.022887,0.008 -0.035156,0.01172 -0.024844,0.0077 -0.05082,0.01602 -0.076172,0.02344 -0.024262,0.0071 -0.049494,0.01461 -0.074219,0.02148 -0.026792,0.0074 -0.052752,0.01433 -0.080078,0.02149 -0.02458,0.0064 -0.049213,0.01137 -0.074219,0.01758 -0.017859,0.0044 -0.036619,0.0093 -0.054687,0.01367 -0.031845,0.0076 -0.06322,0.0162 -0.095703,0.02344 -0.023892,0.0053 -0.048046,0.01051 -0.072266,0.01563 -0.026432,0.0056 -0.053271,0.01029 -0.080078,0.01563 -0.026009,0.0052 -0.051757,0.0107 -0.078125,0.01563 -0.026352,0.0049 -0.053376,0.009 -0.080078,0.01367 -0.023257,0.0041 -0.046804,0.0078 -0.070312,0.01172 -0.092652,0.01531 -0.1868419,0.02878 -0.2832032,0.04101 -0.013018,0.0017 -0.025982,0.0043 -0.039062,0.0059 -0.039156,0.0048 -0.079432,0.0094 -0.1191407,0.01367 -0.0195,0.0021 -0.03896,0.0039 -0.058594,0.0059 -0.1012797,0.01009 -0.2041391,0.01887 -0.3085938,0.02539 -0.0046,2.91e-4 -0.00907,-2.92e-4 -0.013672,0 -0.1135854,0.0069 -0.2289163,0.0132 -0.3457032,0.01563 -0.060804,0.0013 -0.1220253,0.002 -0.1835937,0.002 -0.061389,0 -0.1229672,-6.73e-4 -0.1835938,-0.002 -0.1215124,-0.0025 -0.2413895,-0.0082 -0.359375,-0.01563 h -0.00196 c -0.17572,-0.01114 -0.3474264,-0.02801 -0.5136719,-0.04896 h -0.00195 C 2.4911384,10.406075 1.9925282,10.283582 1.5898437,10.125 0.9453519,9.8711919 0.5869938,9.5268579 0.5371093,9.2578129 c -0.00495,-0.02755 -0.00781,-0.05677 -0.00781,-0.08399 v -0.847651 c 0.2442098,0.194992 0.5578124,0.355236 0.9140624,0.490234 0.5846084,0.221539 1.3066549,0.368932 2.1015626,0.416016 0.091217,0.199084 0.291679,0.337891 0.5253906,0.337891 0.2323538,0 0.4320499,-0.136765 0.5234375,-0.333985 0.845822,-0.04407 1.6111793,-0.199425 2.2207031,-0.439453 0.3404546,-0.13407 0.6408865,-0.295034 0.875,-0.486328 z" />
</svg>
