<svg xmlns="http://www.w3.org/2000/svg" xmlns:xlink="http://www.w3.org/1999/xlink" contentStyleType="text/css" data-diagram-type="CLASS" height="1109px" preserveAspectRatio="none" style="width:1134px;height:1109px;background:#FFFFFF;" version="1.1" viewBox="0 0 1134 1109" width="1134px" zoomAndPan="magnify"><defs/><g><!--class Key--><g class="entity" data-entity="Key" data-source-line="1" data-uid="ent0002" id="entity_Key"><rect fill="#F1F1F1" height="243.5625" rx="2.5" ry="2.5" style="stroke:#181818;stroke-width:0.5;" width="166.6836" x="950" y="7"/><ellipse cx="1016.0522" cy="23" fill="#ADD1B2" rx="11" ry="11" style="stroke:#181818;stroke-width:1;"/><path d="M1019.021,28.6406 Q1018.4429,28.9375 1017.8022,29.0781 Q1017.1616,29.2344 1016.4585,29.2344 Q1013.9585,29.2344 1012.6304,27.5938 Q1011.3179,25.9375 1011.3179,22.8125 Q1011.3179,19.6875 1012.6304,18.0313 Q1013.9585,16.375 1016.4585,16.375 Q1017.1616,16.375 1017.8022,16.5313 Q1018.4585,16.6875 1019.021,16.9844 L1019.021,19.7031 Q1018.396,19.125 1017.8022,18.8594 Q1017.2085,18.5781 1016.5835,18.5781 Q1015.2397,18.5781 1014.5522,19.6563 Q1013.8647,20.7188 1013.8647,22.8125 Q1013.8647,24.9063 1014.5522,25.9844 Q1015.2397,27.0469 1016.5835,27.0469 Q1017.2085,27.0469 1017.8022,26.7813 Q1018.396,26.5 1019.021,25.9219 L1019.021,28.6406 Z " fill="#000000"/><text fill="#000000" font-family="sans-serif" font-size="14" lengthAdjust="spacing" textLength="26.0791" x="1036.5522" y="27.8467">Key</text><line style="stroke:#181818;stroke-width:0.5;" x1="951" x2="1115.6836" y1="39" y2="39"/><text fill="#000000" font-family="sans-serif" font-size="14" lengthAdjust="spacing" textLength="117.6602" x="956" y="55.9951">String: password</text><text fill="#000000" font-family="sans-serif" font-size="14" lengthAdjust="spacing" textLength="154.6836" x="956" y="72.292">String: database_path</text><text fill="#000000" font-family="sans-serif" font-size="14" lengthAdjust="spacing" textLength="109.04" x="956" y="88.5889">String: txt_path</text><text fill="#000000" font-family="sans-serif" font-size="14" lengthAdjust="spacing" textLength="81.4844" x="956" y="104.8857">String: user</text><text fill="#000000" font-family="sans-serif" font-size="14" lengthAdjust="spacing" textLength="96.8857" x="956" y="121.1826">String: geraet</text><text fill="#000000" font-family="sans-serif" font-size="14" lengthAdjust="spacing" textLength="112.499" x="956" y="137.4795">String: lehrstuhl</text><text fill="#000000" font-family="sans-serif" font-size="14" lengthAdjust="spacing" textLength="153.3779" x="956" y="153.7764">String: seriennummer</text><text fill="#000000" font-family="sans-serif" font-size="14" lengthAdjust="spacing" textLength="82.5166" x="956" y="170.0732">String: date</text><text fill="#000000" font-family="sans-serif" font-size="14" lengthAdjust="spacing" textLength="70.417" x="956" y="186.3701">String: ivs</text><text fill="#000000" font-family="sans-serif" font-size="14" lengthAdjust="spacing" textLength="79.0508" x="956" y="202.667">String: hiwi</text><text fill="#000000" font-family="sans-serif" font-size="14" lengthAdjust="spacing" textLength="63.7246" x="956" y="218.9639">String: id</text><text fill="#000000" font-family="sans-serif" font-size="14" lengthAdjust="spacing" textLength="75.9541" x="956" y="235.2607">String: key</text><line style="stroke:#181818;stroke-width:0.5;" x1="951" x2="1115.6836" y1="242.5625" y2="242.5625"/></g><!--class WARNING--><g class="entity" data-entity="WARNING" data-source-line="16" data-uid="ent0003" id="entity_WARNING"><rect fill="#F1F1F1" height="113.1875" rx="2.5" ry="2.5" style="stroke:#181818;stroke-width:0.5;" width="174.415" x="130.5" y="364"/><ellipse cx="178.9224" cy="380" fill="#A9DCDF" rx="11" ry="11" style="stroke:#181818;stroke-width:1;"/><path d="M179.0317,375.3438 L177.8755,380.4219 L180.2036,380.4219 L179.0317,375.3438 Z M177.5474,373.1094 L180.5317,373.1094 L183.8911,385.5 L181.438,385.5 L180.6724,382.4375 L177.3911,382.4375 L176.6411,385.5 L174.2036,385.5 L177.5474,373.1094 Z " fill="#000000"/><text fill="#000000" font-family="sans-serif" font-size="14" font-style="italic" lengthAdjust="spacing" textLength="69.0703" x="199.4224" y="384.8467">WARNING</text><line style="stroke:#181818;stroke-width:0.5;" x1="131.5" x2="303.915" y1="396" y2="396"/><text fill="#000000" font-family="sans-serif" font-size="14" lengthAdjust="spacing" textLength="116.4229" x="136.5" y="412.9951">warning_window</text><text fill="#000000" font-family="sans-serif" font-size="14" lengthAdjust="spacing" textLength="91.1846" x="136.5" y="429.292">warning_text</text><text fill="#000000" font-family="sans-serif" font-size="14" lengthAdjust="spacing" textLength="124.0654" x="136.5" y="445.5889">button_verwerfen</text><text fill="#000000" font-family="sans-serif" font-size="14" lengthAdjust="spacing" textLength="162.415" x="136.5" y="461.8857">button_ueberschreiben</text><line style="stroke:#181818;stroke-width:0.5;" x1="131.5" x2="303.915" y1="469.1875" y2="469.1875"/></g><!--class WARNING_INVENTAR--><g class="entity" data-entity="WARNING_INVENTAR" data-source-line="23" data-uid="ent0004" id="entity_WARNING_INVENTAR"><rect fill="#F1F1F1" height="48" rx="2.5" ry="2.5" style="stroke:#181818;stroke-width:0.5;" width="179.4238" x="343" y="822.5"/><ellipse cx="358" cy="838.5" fill="#ADD1B2" rx="11" ry="11" style="stroke:#181818;stroke-width:1;"/><path d="M360.9688,844.1406 Q360.3906,844.4375 359.75,844.5781 Q359.1094,844.7344 358.4063,844.7344 Q355.9063,844.7344 354.5781,843.0938 Q353.2656,841.4375 353.2656,838.3125 Q353.2656,835.1875 354.5781,833.5313 Q355.9063,831.875 358.4063,831.875 Q359.1094,831.875 359.75,832.0313 Q360.4063,832.1875 360.9688,832.4844 L360.9688,835.2031 Q360.3438,834.625 359.75,834.3594 Q359.1563,834.0781 358.5313,834.0781 Q357.1875,834.0781 356.5,835.1563 Q355.8125,836.2188 355.8125,838.3125 Q355.8125,840.4063 356.5,841.4844 Q357.1875,842.5469 358.5313,842.5469 Q359.1563,842.5469 359.75,842.2813 Q360.3438,842 360.9688,841.4219 L360.9688,844.1406 Z " fill="#000000"/><text fill="#000000" font-family="sans-serif" font-size="14" lengthAdjust="spacing" textLength="147.4238" x="372" y="843.3467">WARNING_INVENTAR</text><line style="stroke:#181818;stroke-width:0.5;" x1="344" x2="521.4238" y1="854.5" y2="854.5"/><line style="stroke:#181818;stroke-width:0.5;" x1="344" x2="521.4238" y1="862.5" y2="862.5"/></g><!--class WARNING_INVENTAR_SERIENNUMMER--><g class="entity" data-entity="WARNING_INVENTAR_SERIENNUMMER" data-source-line="25" data-uid="ent0005" id="entity_WARNING_INVENTAR_SERIENNUMMER"><rect fill="#F1F1F1" height="48" rx="2.5" ry="2.5" style="stroke:#181818;stroke-width:0.5;" width="300.7822" x="7" y="822.5"/><ellipse cx="22" cy="838.5" fill="#ADD1B2" rx="11" ry="11" style="stroke:#181818;stroke-width:1;"/><path d="M24.9688,844.1406 Q24.3906,844.4375 23.75,844.5781 Q23.1094,844.7344 22.4063,844.7344 Q19.9063,844.7344 18.5781,843.0938 Q17.2656,841.4375 17.2656,838.3125 Q17.2656,835.1875 18.5781,833.5313 Q19.9063,831.875 22.4063,831.875 Q23.1094,831.875 23.75,832.0313 Q24.4063,832.1875 24.9688,832.4844 L24.9688,835.2031 Q24.3438,834.625 23.75,834.3594 Q23.1563,834.0781 22.5313,834.0781 Q21.1875,834.0781 20.5,835.1563 Q19.8125,836.2188 19.8125,838.3125 Q19.8125,840.4063 20.5,841.4844 Q21.1875,842.5469 22.5313,842.5469 Q23.1563,842.5469 23.75,842.2813 Q24.3438,842 24.9688,841.4219 L24.9688,844.1406 Z " fill="#000000"/><text fill="#000000" font-family="sans-serif" font-size="14" lengthAdjust="spacing" textLength="268.7822" x="36" y="843.3467">WARNING_INVENTAR_SERIENNUMMER</text><line style="stroke:#181818;stroke-width:0.5;" x1="8" x2="306.7822" y1="854.5" y2="854.5"/><line style="stroke:#181818;stroke-width:0.5;" x1="8" x2="306.7822" y1="862.5" y2="862.5"/></g><!--class loginWindow--><g class="entity" data-entity="loginWindow" data-source-line="27" data-uid="ent0006" id="entity_loginWindow"><rect fill="#F1F1F1" height="137.75" rx="2.5" ry="2.5" style="stroke:#181818;stroke-width:0.5;" width="180.998" x="698" y="351.5"/><ellipse cx="739.7236" cy="371.6328" fill="#ADD1B2" rx="11" ry="11" style="stroke:#181818;stroke-width:1;"/><path d="M742.6923,377.2734 Q742.1142,377.5703 741.4736,377.7109 Q740.833,377.8672 740.1298,377.8672 Q737.6298,377.8672 736.3017,376.2266 Q734.9892,374.5703 734.9892,371.4453 Q734.9892,368.3203 736.3017,366.6641 Q737.6298,365.0078 740.1298,365.0078 Q740.833,365.0078 741.4736,365.1641 Q742.1298,365.3203 742.6923,365.6172 L742.6923,368.3359 Q742.0673,367.7578 741.4736,367.4922 Q740.8798,367.2109 740.2548,367.2109 Q738.9111,367.2109 738.2236,368.2891 Q737.5361,369.3516 737.5361,371.4453 Q737.5361,373.5391 738.2236,374.6172 Q738.9111,375.6797 740.2548,375.6797 Q740.8798,375.6797 741.4736,375.4141 Q742.0673,375.1328 742.6923,374.5547 L742.6923,377.2734 Z " fill="#000000"/><text fill="#000000" font-family="sans-serif" font-size="12" font-style="italic" lengthAdjust="spacing" textLength="33.0879" x="787.9244" y="367.6387">&#171;file&#187;</text><text fill="#000000" font-family="sans-serif" font-size="14" lengthAdjust="spacing" textLength="89.6123" x="759.6622" y="383.4639">loginWindow</text><line style="stroke:#181818;stroke-width:0.5;" x1="699" x2="877.998" y1="391.7656" y2="391.7656"/><text fill="#000000" font-family="sans-serif" font-size="14" lengthAdjust="spacing" textLength="105.8477" x="704" y="408.7607">Key: keyObject</text><text fill="#000000" font-family="sans-serif" font-size="14" lengthAdjust="spacing" textLength="168.998" x="704" y="425.0576">LOGIN: loginwindow_obj</text><line style="stroke:#181818;stroke-width:0.5;" x1="699" x2="877.998" y1="432.3594" y2="432.3594"/><text fill="#000000" font-family="sans-serif" font-size="14" lengthAdjust="spacing" textLength="107.3174" x="704" y="449.3545">read_INI_path()</text><text fill="#000000" font-family="sans-serif" font-size="14" lengthAdjust="spacing" textLength="108.4316" x="704" y="465.6514">get_DataBase()</text><text fill="#000000" font-family="sans-serif" font-size="14" lengthAdjust="spacing" textLength="45.0283" x="704" y="481.9482">login()</text></g><!--class mainWindow--><g class="entity" data-entity="mainWindow" data-source-line="35" data-uid="ent0007" id="entity_mainWindow"><rect fill="#F1F1F1" height="512.5781" rx="2.5" ry="2.5" style="stroke:#181818;stroke-width:0.5;" width="294.0645" x="703.5" y="590"/><ellipse cx="801.0386" cy="610.1328" fill="#ADD1B2" rx="11" ry="11" style="stroke:#181818;stroke-width:1;"/><path d="M804.0073,615.7734 Q803.4292,616.0703 802.7886,616.2109 Q802.1479,616.3672 801.4448,616.3672 Q798.9448,616.3672 797.6167,614.7266 Q796.3042,613.0703 796.3042,609.9453 Q796.3042,606.8203 797.6167,605.1641 Q798.9448,603.5078 801.4448,603.5078 Q802.1479,603.5078 802.7886,603.6641 Q803.4448,603.8203 804.0073,604.1172 L804.0073,606.8359 Q803.3823,606.2578 802.7886,605.9922 Q802.1948,605.7109 801.5698,605.7109 Q800.2261,605.7109 799.5386,606.7891 Q798.8511,607.8516 798.8511,609.9453 Q798.8511,612.0391 799.5386,613.1172 Q800.2261,614.1797 801.5698,614.1797 Q802.1948,614.1797 802.7886,613.9141 Q803.3823,613.6328 804.0073,613.0547 L804.0073,615.7734 Z " fill="#000000"/><text fill="#000000" font-family="sans-serif" font-size="12" font-style="italic" lengthAdjust="spacing" textLength="33.0879" x="850.2383" y="606.1387">&#171;file&#187;</text><text fill="#000000" font-family="sans-serif" font-size="14" lengthAdjust="spacing" textLength="90.4873" x="821.5386" y="621.9639">mainWindow</text><line style="stroke:#181818;stroke-width:0.5;" x1="704.5" x2="996.5645" y1="630.2656" y2="630.2656"/><text fill="#000000" font-family="sans-serif" font-size="14" lengthAdjust="spacing" textLength="76.3848" x="709.5" y="647.2607">entriesDict</text><text fill="#000000" font-family="sans-serif" font-size="14" lengthAdjust="spacing" textLength="148.8184" x="709.5" y="663.5576">PyKeePass: database</text><text fill="#000000" font-family="sans-serif" font-size="14" lengthAdjust="spacing" textLength="118.8291" x="709.5" y="679.8545">mainWindow_obj</text><line style="stroke:#181818;stroke-width:0.5;" x1="704.5" x2="996.5645" y1="687.1563" y2="687.1563"/><text fill="#000000" font-family="sans-serif" font-size="14" lengthAdjust="spacing" textLength="230.0771" x="709.5" y="704.1514">create_lehrstuhlLst(Key): list[str]</text><text fill="#000000" font-family="sans-serif" font-size="14" lengthAdjust="spacing" textLength="217.0547" x="709.5" y="720.4482">create_entriesLst(Key): list[str]</text><text fill="#000000" font-family="sans-serif" font-size="14" lengthAdjust="spacing" textLength="160.8701" x="709.5" y="736.7451">openMainWindow(Key)</text><text fill="#000000" font-family="sans-serif" font-size="14" lengthAdjust="spacing" textLength="282.0645" x="709.5" y="753.042">create_entriesDict():dict[str,dict[str,str]]</text><text fill="#000000" font-family="sans-serif" font-size="14" lengthAdjust="spacing" textLength="90.7129" x="709.5" y="769.3389">set_opacity()</text><text fill="#000000" font-family="sans-serif" font-size="14" lengthAdjust="spacing" textLength="202.3369" x="709.5" y="785.6357">remove_createKey_window()</text><text fill="#000000" font-family="sans-serif" font-size="14" lengthAdjust="spacing" textLength="185.0488" x="709.5" y="801.9326">show_createKey_window()</text><text fill="#000000" font-family="sans-serif" font-size="14" lengthAdjust="spacing" textLength="130.0127" x="709.5" y="818.2295">printKey_window()</text><text fill="#000000" font-family="sans-serif" font-size="14" lengthAdjust="spacing" textLength="141.8662" x="709.5" y="834.5264">createKey_window()</text><text fill="#000000" font-family="sans-serif" font-size="14" lengthAdjust="spacing" textLength="199.3906" x="709.5" y="850.8232">check_input_completeness()</text><text fill="#000000" font-family="sans-serif" font-size="14" lengthAdjust="spacing" textLength="69.8975" x="709.5" y="867.1201">printKey()</text><text fill="#000000" font-family="sans-serif" font-size="14" lengthAdjust="spacing" textLength="226.584" x="709.5" y="883.417">clear_mainWindow_inputFields()</text><text fill="#000000" font-family="sans-serif" font-size="14" lengthAdjust="spacing" textLength="106.7637" x="709.5" y="899.7139">getKeyTxtFile()</text><text fill="#000000" font-family="sans-serif" font-size="14" lengthAdjust="spacing" textLength="164.3018" x="709.5" y="916.0107">extract_ID_KEY(): Tuple</text><text fill="#000000" font-family="sans-serif" font-size="14" lengthAdjust="spacing" textLength="191.3857" x="709.5" y="932.3076">remove_CRLF(str): StringIO</text><text fill="#000000" font-family="sans-serif" font-size="14" lengthAdjust="spacing" textLength="114.666" x="709.5" y="948.6045">get_fieldInputs()</text><text fill="#000000" font-family="sans-serif" font-size="14" lengthAdjust="spacing" textLength="224.0479" x="709.5" y="964.9014">checkFor_personInput_change()</text><text fill="#000000" font-family="sans-serif" font-size="14" lengthAdjust="spacing" textLength="221.9971" x="709.5" y="981.1982">checkFor_geraetInput_change()</text><text fill="#000000" font-family="sans-serif" font-size="14" lengthAdjust="spacing" textLength="64.9961" x="709.5" y="997.4951">rename()</text><text fill="#000000" font-family="sans-serif" font-size="14" lengthAdjust="spacing" textLength="107.0234" x="709.5" y="1013.792">txt_to_pdf(Key)</text><text fill="#000000" font-family="sans-serif" font-size="14" lengthAdjust="spacing" textLength="127.3877" x="709.5" y="1030.0889">write_entry(Entry)</text><text fill="#000000" font-family="sans-serif" font-size="14" lengthAdjust="spacing" textLength="174.7539" x="709.5" y="1046.3857">handle_dublicates(entry)</text><text fill="#000000" font-family="sans-serif" font-size="14" lengthAdjust="spacing" textLength="99.6885" x="709.5" y="1062.6826">create_entry()</text><text fill="#000000" font-family="sans-serif" font-size="14" lengthAdjust="spacing" textLength="119.1162" x="709.5" y="1078.9795">make_keyEntry()</text><text fill="#000000" font-family="sans-serif" font-size="14" lengthAdjust="spacing" textLength="167.166" x="709.5" y="1095.2764">search_seriennummer()</text></g><!--class loginWindowGUI--><g class="entity" data-entity="loginWindowGUI" data-source-line="71" data-uid="ent0008" id="entity_loginWindowGUI"><rect fill="#F1F1F1" height="194.6719" rx="2.5" ry="2.5" style="stroke:#181818;stroke-width:0.5;" width="252.4609" x="662.5" y="31.5"/><ellipse cx="727.062" cy="47.5" fill="#ADD1B2" rx="11" ry="11" style="stroke:#181818;stroke-width:1;"/><path d="M730.0308,53.1406 Q729.4526,53.4375 728.812,53.5781 Q728.1714,53.7344 727.4683,53.7344 Q724.9683,53.7344 723.6401,52.0938 Q722.3276,50.4375 722.3276,47.3125 Q722.3276,44.1875 723.6401,42.5313 Q724.9683,40.875 727.4683,40.875 Q728.1714,40.875 728.812,41.0313 Q729.4683,41.1875 730.0308,41.4844 L730.0308,44.2031 Q729.4058,43.625 728.812,43.3594 Q728.2183,43.0781 727.5933,43.0781 Q726.2495,43.0781 725.562,44.1563 Q724.8745,45.2188 724.8745,47.3125 Q724.8745,49.4063 725.562,50.4844 Q726.2495,51.5469 727.5933,51.5469 Q728.2183,51.5469 728.812,51.2813 Q729.4058,51 730.0308,50.4219 L730.0308,53.1406 Z " fill="#000000"/><text fill="#000000" font-family="sans-serif" font-size="14" lengthAdjust="spacing" textLength="114.8369" x="747.562" y="52.3467">loginWindowGUI</text><line style="stroke:#181818;stroke-width:0.5;" x1="663.5" x2="913.9609" y1="63.5" y2="63.5"/><text fill="#000000" font-family="sans-serif" font-size="14" lengthAdjust="spacing" textLength="94.2197" x="668.5" y="80.4951">login_window</text><text fill="#000000" font-family="sans-serif" font-size="14" lengthAdjust="spacing" textLength="120.6748" x="668.5" y="96.792">keymakerHeader</text><text fill="#000000" font-family="sans-serif" font-size="14" lengthAdjust="spacing" textLength="240.4609" x="668.5" y="113.0889">Label: datenbankAuswahlMeldung</text><text fill="#000000" font-family="sans-serif" font-size="14" lengthAdjust="spacing" textLength="151.2998" x="668.5" y="129.3857">Label: error_message</text><text fill="#000000" font-family="sans-serif" font-size="14" lengthAdjust="spacing" textLength="178.5342" x="668.5" y="145.6826">Button: browse_database</text><text fill="#000000" font-family="sans-serif" font-size="14" lengthAdjust="spacing" textLength="155.3398" x="668.5" y="161.9795">Entry: database_entry</text><text fill="#000000" font-family="sans-serif" font-size="14" lengthAdjust="spacing" textLength="154.5059" x="668.5" y="178.2764">Label: password_label</text><text fill="#000000" font-family="sans-serif" font-size="14" lengthAdjust="spacing" textLength="157.1445" x="668.5" y="194.5732">Entry: password_entry</text><text fill="#000000" font-family="sans-serif" font-size="14" lengthAdjust="spacing" textLength="143.3428" x="668.5" y="210.8701">Button: login_button</text><line style="stroke:#181818;stroke-width:0.5;" x1="663.5" x2="913.9609" y1="218.1719" y2="218.1719"/></g><!--class mainWindowGUI--><g class="entity" data-entity="mainWindowGUI" data-source-line="83" data-uid="ent0009" id="entity_mainWindowGUI"><rect fill="#F1F1F1" height="178.375" rx="2.5" ry="2.5" style="stroke:#181818;stroke-width:0.5;" width="251.8252" x="339.5" y="331.5"/><ellipse cx="403.3066" cy="347.5" fill="#ADD1B2" rx="11" ry="11" style="stroke:#181818;stroke-width:1;"/><path d="M406.2754,353.1406 Q405.6973,353.4375 405.0566,353.5781 Q404.416,353.7344 403.7129,353.7344 Q401.2129,353.7344 399.8848,352.0938 Q398.5723,350.4375 398.5723,347.3125 Q398.5723,344.1875 399.8848,342.5313 Q401.2129,340.875 403.7129,340.875 Q404.416,340.875 405.0566,341.0313 Q405.7129,341.1875 406.2754,341.4844 L406.2754,344.2031 Q405.6504,343.625 405.0566,343.3594 Q404.4629,343.0781 403.8379,343.0781 Q402.4941,343.0781 401.8066,344.1563 Q401.1191,345.2188 401.1191,347.3125 Q401.1191,349.4063 401.8066,350.4844 Q402.4941,351.5469 403.8379,351.5469 Q404.4629,351.5469 405.0566,351.2813 Q405.6504,351 406.2754,350.4219 L406.2754,353.1406 Z " fill="#000000"/><text fill="#000000" font-family="sans-serif" font-size="14" lengthAdjust="spacing" textLength="115.7119" x="423.8066" y="352.3467">mainWindowGUI</text><line style="stroke:#181818;stroke-width:0.5;" x1="340.5" x2="590.3252" y1="363.5" y2="363.5"/><text fill="#000000" font-family="sans-serif" font-size="14" lengthAdjust="spacing" textLength="95.0947" x="345.5" y="380.4951">main_window</text><text fill="#000000" font-family="sans-serif" font-size="14" lengthAdjust="spacing" textLength="239.8252" x="345.5" y="396.792">Button: create_key_windowButton</text><text fill="#000000" font-family="sans-serif" font-size="14" lengthAdjust="spacing" textLength="227.9717" x="345.5" y="413.0889">Button: print_key_windowButton</text><text fill="#000000" font-family="sans-serif" font-size="14" lengthAdjust="spacing" textLength="66.7598" x="345.5" y="429.3857">trennlinie</text><text fill="#000000" font-family="sans-serif" font-size="14" lengthAdjust="spacing" textLength="141.5039" x="345.5" y="445.6826">Button: browse_text</text><text fill="#000000" font-family="sans-serif" font-size="14" lengthAdjust="spacing" textLength="109.6963" x="345.5" y="461.9795">Entry: txt_entry</text><text fill="#000000" font-family="sans-serif" font-size="14" lengthAdjust="spacing" textLength="135.7822" x="345.5" y="478.2764">Label: person_label</text><text fill="#000000" font-family="sans-serif" font-size="14" lengthAdjust="spacing" textLength="138.4209" x="345.5" y="494.5732">Entry: person_entry</text><line style="stroke:#181818;stroke-width:0.5;" x1="340.5" x2="590.3252" y1="501.875" y2="501.875"/></g><!--class PDF--><g class="entity" data-entity="PDF" data-source-line="95" data-uid="ent0010" id="entity_PDF"><rect fill="#F1F1F1" height="219.2344" rx="2.5" ry="2.5" style="stroke:#181818;stroke-width:0.5;" width="163.6621" x="914.5" y="311"/><ellipse cx="956.1019" cy="331.1328" fill="#ADD1B2" rx="11" ry="11" style="stroke:#181818;stroke-width:1;"/><path d="M959.0706,336.7734 Q958.4925,337.0703 957.8519,337.2109 Q957.2112,337.3672 956.5081,337.3672 Q954.0081,337.3672 952.68,335.7266 Q951.3675,334.0703 951.3675,330.9453 Q951.3675,327.8203 952.68,326.1641 Q954.0081,324.5078 956.5081,324.5078 Q957.2112,324.5078 957.8519,324.6641 Q958.5081,324.8203 959.0706,325.1172 L959.0706,327.8359 Q958.4456,327.2578 957.8519,326.9922 Q957.2581,326.7109 956.6331,326.7109 Q955.2894,326.7109 954.6019,327.7891 Q953.9144,328.8516 953.9144,330.9453 Q953.9144,333.0391 954.6019,334.1172 Q955.2894,335.1797 956.6331,335.1797 Q957.2581,335.1797 957.8519,334.9141 Q958.4456,334.6328 959.0706,334.0547 L959.0706,336.7734 Z " fill="#000000"/><text fill="#000000" font-family="sans-serif" font-size="12" font-style="italic" lengthAdjust="spacing" textLength="76.5469" x="974.0134" y="327.1387">&#171;createPDF&#187;</text><text fill="#000000" font-family="sans-serif" font-size="14" lengthAdjust="spacing" textLength="27.2754" x="998.6491" y="342.9639">PDF</text><line style="stroke:#181818;stroke-width:0.5;" x1="915.5" x2="1077.1621" y1="351.2656" y2="351.2656"/><text fill="#000000" font-family="sans-serif" font-size="14" lengthAdjust="spacing" textLength="49.3213" x="920.5" y="368.2607">header</text><text fill="#000000" font-family="sans-serif" font-size="14" lengthAdjust="spacing" textLength="79.2422" x="920.5" y="384.5576">device_info</text><text fill="#000000" font-family="sans-serif" font-size="14" lengthAdjust="spacing" textLength="103.4277" x="920.5" y="400.8545">bezeichner_txt</text><text fill="#000000" font-family="sans-serif" font-size="14" lengthAdjust="spacing" textLength="51.2695" x="920.5" y="417.1514">key_txt</text><text fill="#000000" font-family="sans-serif" font-size="14" lengthAdjust="spacing" textLength="88.9902" x="920.5" y="433.4482">key_barcode</text><text fill="#000000" font-family="sans-serif" font-size="14" lengthAdjust="spacing" textLength="41.918" x="920.5" y="449.7451">footer</text><text fill="#000000" font-family="sans-serif" font-size="14" lengthAdjust="spacing" textLength="64.9004" x="920.5" y="466.042">print_key</text><line style="stroke:#181818;stroke-width:0.5;" x1="915.5" x2="1077.1621" y1="473.3438" y2="473.3438"/><text fill="#000000" font-family="sans-serif" font-size="14" lengthAdjust="spacing" textLength="139.4326" x="920.5" y="490.3389">create_id_barcode()</text><text fill="#000000" font-family="sans-serif" font-size="14" lengthAdjust="spacing" textLength="151.6621" x="920.5" y="506.6357">create_key_barcode()</text><text fill="#000000" font-family="sans-serif" font-size="14" lengthAdjust="spacing" textLength="127.9824" x="920.5" y="522.9326">print_bezeichner()</text></g><!--class helper--><g class="entity" data-entity="helper" data-source-line="108" data-uid="ent0011" id="entity_helper"><rect fill="#F1F1F1" height="72.5625" rx="2.5" ry="2.5" style="stroke:#181818;stroke-width:0.5;" width="238.1191" x="389.5" y="92.5"/><ellipse cx="481.9937" cy="112.6328" fill="#ADD1B2" rx="11" ry="11" style="stroke:#181818;stroke-width:1;"/><path d="M484.9624,118.2734 Q484.3843,118.5703 483.7437,118.7109 Q483.103,118.8672 482.3999,118.8672 Q479.8999,118.8672 478.5718,117.2266 Q477.2593,115.5703 477.2593,112.4453 Q477.2593,109.3203 478.5718,107.6641 Q479.8999,106.0078 482.3999,106.0078 Q483.103,106.0078 483.7437,106.1641 Q484.3999,106.3203 484.9624,106.6172 L484.9624,109.3359 Q484.3374,108.7578 483.7437,108.4922 Q483.1499,108.2109 482.5249,108.2109 Q481.1812,108.2109 480.4937,109.2891 Q479.8062,110.3516 479.8062,112.4453 Q479.8062,114.5391 480.4937,115.6172 Q481.1812,116.6797 482.5249,116.6797 Q483.1499,116.6797 483.7437,116.4141 Q484.3374,116.1328 484.9624,115.5547 L484.9624,118.2734 Z " fill="#000000"/><text fill="#000000" font-family="sans-serif" font-size="12" font-style="italic" lengthAdjust="spacing" textLength="33.0879" x="508.2656" y="108.6387">&#171;file&#187;</text><text fill="#000000" font-family="sans-serif" font-size="14" lengthAdjust="spacing" textLength="44.6318" x="502.4937" y="124.4639">helper</text><line style="stroke:#181818;stroke-width:0.5;" x1="390.5" x2="626.6191" y1="132.7656" y2="132.7656"/><line style="stroke:#181818;stroke-width:0.5;" x1="390.5" x2="626.6191" y1="140.7656" y2="140.7656"/><text fill="#000000" font-family="sans-serif" font-size="14" lengthAdjust="spacing" textLength="226.1191" x="395.5" y="157.7607">resource_path(relative_path:str)</text></g><!--reverse link WARNING to WARNING_INVENTAR--><g class="link" data-entity-1="WARNING" data-entity-2="WARNING_INVENTAR" data-source-line="112" data-uid="lnk12" id="link_WARNING_WARNING_INVENTAR"><path codeLine="112" d="M266.8412,492.2688 C288.5312,524.3988 305.07,551.08 325.5,590 C368.85,672.61 407.95,776.74 424.34,822.34" fill="none" id="WARNING-backto-WARNING_INVENTAR" style="stroke:#181818;stroke-width:1;"/><polygon fill="none" points="256.77,477.35,261.8683,495.6259,271.8142,488.9117,256.77,477.35" style="stroke:#181818;stroke-width:1;"/><text fill="#000000" font-family="sans-serif" font-size="13" lengthAdjust="spacing" textLength="29.1865" x="389.503" y="811.311">1 | 0</text></g><!--reverse link WARNING to WARNING_INVENTAR_SERIENNUMMER--><g class="link" data-entity-1="WARNING" data-entity-2="WARNING_INVENTAR_SERIENNUMMER" data-source-line="113" data-uid="lnk13" id="link_WARNING_WARNING_INVENTAR_SERIENNUMMER"><path codeLine="113" d="M207.068,495.1925 C193.768,589.1825 169.99,757.25 160.78,822.34" fill="none" id="WARNING-backto-WARNING_INVENTAR_SERIENNUMMER" style="stroke:#181818;stroke-width:1;"/><polygon fill="none" points="209.59,477.37,201.1272,494.3518,213.0089,496.0331,209.59,477.37" style="stroke:#181818;stroke-width:1;"/><text fill="#000000" font-family="sans-serif" font-size="13" lengthAdjust="spacing" textLength="29.1865" x="128.9567" y="811.311">1 | 0</text></g><!--link helper to WARNING--><g class="link" data-entity-1="helper" data-entity-2="WARNING" data-source-line="115" data-uid="lnk14" id="link_helper_WARNING"><path codeLine="115" d="M470.84,165.65 C432.79,201.87 372.49,259.76 321.5,311 C304.57,328.02 286.37,346.81 270.01,363.92" fill="none" id="helper-WARNING" style="stroke:#181818;stroke-width:1;"/></g><!--link helper to loginWindow--><g class="link" data-entity-1="helper" data-entity-2="loginWindow" data-source-line="116" data-uid="lnk15" id="link_helper_loginWindow"><path codeLine="116" d="M543.11,165.79 C587.74,211.93 666.28,293.13 722.49,351.25" fill="none" id="helper-loginWindow" style="stroke:#181818;stroke-width:1;"/></g><!--link helper to mainWindow--><g class="link" data-entity-1="helper" data-entity-2="mainWindow" data-source-line="117" data-uid="lnk16" id="link_helper_mainWindow"><path codeLine="117" d="M531.16,165.68 C553.21,201.43 586.63,258.55 609.5,311 C650.4,404.79 640.29,435.91 680.5,530 C688.94,549.74 698.18,569.89 707.88,589.98" fill="none" id="helper-mainWindow" style="stroke:#181818;stroke-width:1;"/></g><!--reverse link loginWindowGUI to loginWindow--><g class="link" data-entity-1="loginWindowGUI" data-entity-2="loginWindow" data-source-line="119" data-uid="lnk17" id="link_loginWindowGUI_loginWindow"><path codeLine="119" d="M788.5,232.8 C788.5,273.57 788.5,314.05 788.5,351.15" fill="none" id="loginWindowGUI-backto-loginWindow" style="stroke:#181818;stroke-width:1;"/><polygon fill="#181818" points="788.5,226.8,784.5,235.8,788.5,231.8,792.5,235.8,788.5,226.8" style="stroke:#181818;stroke-width:1;"/></g><!--reverse link mainWindowGUI to mainWindow--><g class="link" data-entity-1="mainWindowGUI" data-entity-2="mainWindow" data-source-line="120" data-uid="lnk18" id="link_mainWindowGUI_mainWindow"><path codeLine="120" d="M549.543,514.0524 C595.143,564.2824 649.69,624.35 703.3,683.39" fill="none" id="mainWindowGUI-backto-mainWindow" style="stroke:#181818;stroke-width:1;"/><polygon fill="#181818" points="545.51,509.61,548.5978,518.9623,548.8708,513.312,554.5211,513.585,545.51,509.61" style="stroke:#181818;stroke-width:1;"/></g><!--reverse link PDF to mainWindow--><g class="link" data-entity-1="PDF" data-entity-2="mainWindow" data-source-line="121" data-uid="lnk19" id="link_PDF_mainWindow"><path codeLine="121" d="M957.1374,535.8134 C950.6774,554.5834 945.67,569.11 938.51,589.9" fill="none" id="PDF-backto-mainWindow" style="stroke:#181818;stroke-width:1;"/><polygon fill="#181818" points="959.09,530.14,952.3789,537.3484,957.4628,534.8678,959.9434,539.9518,959.09,530.14" style="stroke:#181818;stroke-width:1;"/></g><!--reverse link Key to loginWindow--><g class="link" data-entity-1="Key" data-entity-2="loginWindow" data-source-line="122" data-uid="lnk20" id="link_Key_loginWindow"><path codeLine="122" d="M945.9595,235.0331 C940.1095,241.9931 938.15,244.31 932.5,251 C904.57,284.07 873.37,320.62 847.18,351.2" fill="none" id="Key-backto-loginWindow" style="stroke:#181818;stroke-width:1;"/><polygon fill="#181818" points="949.82,230.44,940.9671,234.7559,946.6029,234.2675,947.0912,239.9033,949.82,230.44" style="stroke:#181818;stroke-width:1;"/></g><!--reverse link Key to mainWindow--><g class="link" data-entity-1="Key" data-entity-2="mainWindow" data-source-line="123" data-uid="lnk21" id="link_Key_mainWindow"><path codeLine="123" d="M1084.2003,256.9535 C1109.5903,337.6735 1127.64,439.42 1096.5,530 C1075.61,590.76 1037.7,648.8 997.8,698.16" fill="none" id="Key-backto-mainWindow" style="stroke:#181818;stroke-width:1;"/><polygon fill="#181818" points="1082.4,251.23,1081.2848,261.0155,1083.9003,255.9996,1088.9162,258.6151,1082.4,251.23" style="stroke:#181818;stroke-width:1;"/></g><!--reverse link Key to PDF--><g class="link" data-entity-1="Key" data-entity-2="PDF" data-source-line="124" data-uid="lnk22" id="link_Key_PDF"><path codeLine="124" d="M1017.2606,257.0518 C1014.7306,276.8818 1012.88,291.37 1010.38,310.88" fill="none" id="Key-backto-PDF" style="stroke:#181818;stroke-width:1;"/><polygon fill="#181818" points="1018.02,251.1,1012.9131,259.5214,1017.3872,256.0598,1020.8488,260.5339,1018.02,251.1" style="stroke:#181818;stroke-width:1;"/></g><!--SRC=[ZLLRQzim57xFhp1zIc65xJMKGhiadMcRbbvMnXX2jazYDOfa93bkrkw_xqYo8xdnO60IwJltgt9EjKwkOFSsIf87evXOJP8AiKQg8e8AQcX6DP2AcZB2pQlv2DKQL7HTWQ9W8e13gRIfInvXAC90Y7gpwScYLOYkRAkZMyaQ5XDZTzUm6_qPZMYcZQAvIPxFxnVfuj86sL0ba8SqJ1IoYG03hzRDh3P62h85rO1QWWXG3HaedPSAM8OuwizTzbhb95rydoqUp-_V_aaX3xFxTBPOFDtSp28sBbTCF3j_ajFJ9UDmTcPTnRAuK6wp5yYjRzUtb-bYulcz_qHcBqXGG0kqahfQZ8yHMO4XKopQ1HRD0Ku8Jtkh6pfe50Jc4FIKEOjtkok0EsGFBO1e46tjuvUZ3mR8lhhNsemnW6Dqbsdp4mlnAt2rHePvP0NYPc_1CHn8MlV6nvC2_wpOf_t1wh1ADCOlAvepitFXAzZ8BH2l1LMszNSqNM8WWvGAsybym0OPynBoDM6YgWt9vQRYO420rZqjdfC3LIJAe1EQC-25xYg7l8-lY75VEcnCsyKadPAhsGyCEtciqKA8wklzzNoCaIF5Jq1wsxR0qkfDhGKT_9nBHIfiPIbIxt19nGhwT3-s1tG5WcxyqOw-aQGgbbs96iNQ2kt6C_jhGPGjE92YpZZBCN5w31qfAgdFpOQkWM33p_Q8ncJb9OdtWyF3DpH5bq_fMzVoOT1HiJMWlk6mk3LpJJFWVik8Z8hrUQqRMl8RJ5ajLe41bCACRB2ST6MpVk7smIJ9b6nm9KQ3uHoFjgKBBIZg5YlXzXxuztZ7trdm4VZzCpIvRQ0M275smcrwr_jEzOI8mpNc48F1EWlE11i8jzsJhUks2pv6wLhh84QFThmXchlf71UGTnRFVWkLNOqAsB8SS4YMqcvY-0qiBmKeOfmNrlTmoh1PP65zNaffGCMBYHKTEPfY4ac5KIN1J0IsRuftkWIE0VKMfm8jQvNx9tAiW5F3jlusiRDfXTi78JbzFpb9ZhuaxyddeuDNul-uUc_9QDGwX08jOuH4an6XeOj6e_xi9ASVX7eDvwYHiAjV7y9zSA2ZmmROKCDV]--></g></svg>