<?xml version="1.0" encoding="UTF-8" standalone="no"?>
<svg
   viewBox="0 0 10.583333 13.2291675"
   version="1.1"
   x="0px"
   y="0px"
   id="svg2"
   sodipodi:docname="keymaker_logoWIP.svg"
   inkscape:version="1.3.2 (091e20e, 2023-11-25, custom)"
   xmlns:inkscape="http://www.inkscape.org/namespaces/inkscape"
   xmlns:sodipodi="http://sodipodi.sourceforge.net/DTD/sodipodi-0.dtd"
   xmlns="http://www.w3.org/2000/svg"
   xmlns:svg="http://www.w3.org/2000/svg">
  <defs
     id="defs2" />
  <sodipodi:namedview
     id="namedview2"
     pagecolor="#ffffff"
     bordercolor="#000000"
     borderopacity="0.25"
     inkscape:showpageshadow="2"
     inkscape:pageopacity="0.0"
     inkscape:pagecheckerboard="0"
     inkscape:deskcolor="#d1d1d1"
     inkscape:zoom="32"
     inkscape:cx="10.21875"
     inkscape:cy="3.578125"
     inkscape:window-width="1920"
     inkscape:window-height="991"
     inkscape:window-x="-9"
     inkscape:window-y="-9"
     inkscape:window-maximized="1"
     inkscape:current-layer="layer2" />
  <g
     inkscape:groupmode="layer"
     id="layer1"
     inkscape:label="Bügel">
    <path
       id="path6"
       style="fill:#000000;fill-opacity:1;stroke:none;stroke-width:0;stroke-dasharray:none;stroke-opacity:1;paint-order:fill markers stroke"
       d="M 5.3203125 1.6582031 C 4.5053295 1.6589422 3.7760723 2.0841097 3.2539062 2.7558594 C 2.7317402 3.4276088 2.4117998 4.3468459 2.40625 5.3496094 L 2.40625 5.421875 A 0.44661958 0.39525357 0 0 0 2.4042969 5.4492188 A 0.44661958 0.39525357 0 0 0 2.8496094 5.84375 A 0.44661958 0.39525357 0 0 0 3.296875 5.4492188 A 0.44661958 0.39525357 0 0 0 3.2949219 5.4257812 L 3.296875 5.3515625 C 3.3092856 4.4858602 3.5881127 3.6854932 4.0410156 3.1640625 C 4.3839207 2.7692734 4.8212364 2.5321871 5.3261719 2.53125 C 5.9118725 2.5323336 6.4181942 2.8540329 6.7871094 3.3710938 C 7.1560244 3.8881544 7.3816872 4.5994897 7.3925781 5.359375 L 7.3925781 5.40625 A 0.44661958 0.39525357 0 0 0 7.390625 5.4335938 A 0.44661958 0.39525357 0 0 0 7.3925781 5.4511719 A 0.44661958 0.39525357 0 0 0 7.8378906 5.8300781 A 0.44661958 0.39525357 0 0 0 8.2832031 5.4394531 L 8.2910156 5.4394531 L 8.2910156 5.3496094 C 8.2799013 3.3415025 6.9509918 1.6584121 5.3203125 1.6582031 z " />
  </g>
  <path
     style="color:#000000;display:inline;paint-order:fill markers stroke"
     d="m 5.3576854,3.7336212 c -1.0951633,0 -2.0844139,0.183708 -2.8241174,0.4976441 -0.3698531,0.156967 -0.6777726,0.34447 -0.9058884,0.574125 -0.2281158,0.229656 -0.379304,0.514589 -0.379304,0.824239 v 5.2032997 c 0,0.09677 0.015161,0.190896 0.042373,0.281637 1.508e-4,5.29e-4 2.646e-4,10e-4 5.292e-4,0.0016 1.085e-4,3.7e-4 5.292e-4,6.61e-4 5.292e-4,10e-4 0.1504606,0.517483 0.6708986,0.891138 1.3513381,1.159102 0.00886,0.0035 0.017939,0.0069 0.026871,0.01033 0.00431,0.0017 0.0086,0.0035 0.012912,0.0052 0.040008,0.01535 0.080674,0.03034 0.121957,0.04496 0.01651,0.0058 0.033417,0.01132 0.050125,0.01705 0.037703,0.01292 0.076025,0.02541 0.1147234,0.03772 0.00942,0.003 0.018944,0.0063 0.028421,0.0093 0.031329,0.0098 0.062616,0.01904 0.094567,0.02842 0.033451,0.0098 0.067172,0.01955 0.1012851,0.02894 0.021749,0.006 0.043617,0.01178 0.06563,0.01757 0.025321,0.0067 0.050826,0.01322 0.07648,0.01964 0.031626,0.0079 0.063468,0.01572 0.095602,0.02325 0.020585,0.0048 0.041219,0.0098 0.06201,0.01447 0.034869,0.0078 0.069993,0.01535 0.1054206,0.02274 0.025532,0.0053 0.051194,0.01041 0.076999,0.0155 0.02585,0.0051 0.051901,0.01013 0.078031,0.01499 0.034563,0.0064 0.06935,0.01259 0.1043861,0.0186 0.022251,0.0038 0.04473,0.0072 0.06718,0.01085 0.033462,0.0054 0.0669,0.01096 0.1007692,0.01602 0.026352,0.0039 0.052975,0.0077 0.079581,0.01137 0.036727,0.0051 0.073417,0.01033 0.1105879,0.01499 0.019844,0.0025 0.039981,0.0044 0.059944,0.0067 0.041981,0.005 0.084098,0.01009 0.1266058,0.01447 0.016272,0.0017 0.032755,0.0031 0.049093,0.0047 0.042521,0.0041 0.08514,0.0083 0.1281589,0.01189 0.026353,0.0022 0.053041,0.0042 0.079581,0.0062 0.04086,0.003 0.081716,0.0058 0.1229889,0.0083 0.00495,2.91e-4 0.010028,2.26e-4 0.014975,5.29e-4 0.1171813,0.0069 0.2358363,0.01196 0.3560524,0.01447 0.067588,0.0014 0.1351571,0.0021 0.2036048,0.0021 0.068442,0 0.136533,-6.61e-4 0.2041208,-0.0021 0.04246,-8.74e-4 0.084511,-0.0027 0.1266084,-0.0041 0.018389,-6.35e-4 0.036981,-8.2e-4 0.055293,-0.0016 0.063516,-0.0025 0.1265211,-0.0055 0.1891374,-0.0093 7.938e-4,-5.2e-5 0.00185,5.2e-5 0.00265,0 0.04041,-0.0024 0.080391,-0.0053 0.1204065,-0.0083 0.02654,-0.002 0.053221,-0.004 0.079581,-0.0062 0.1639438,-0.01355 0.3242786,-0.03135 0.4805918,-0.05323 0.022992,-0.0032 0.045908,-0.0069 0.068728,-0.01033 0.036303,-0.0054 0.072168,-0.01122 0.1080055,-0.01705 0.021537,-0.0035 0.043228,-0.0067 0.064595,-0.01033 0.035036,-0.006 0.069824,-0.01217 0.1043861,-0.0186 0.026141,-0.0049 0.052179,-0.0099 0.078031,-0.01499 0.025797,-0.0051 0.051475,-0.01018 0.076996,-0.0155 0.03543,-0.0074 0.070554,-0.01491 0.1054206,-0.02274 0.020796,-0.0047 0.041426,-0.0096 0.062013,-0.01447 0.032134,-0.0075 0.063976,-0.01534 0.095599,-0.02325 0.025665,-0.0064 0.05117,-0.01297 0.076483,-0.01964 0.022013,-0.0058 0.043878,-0.01159 0.065627,-0.01757 0.034115,-0.0094 0.067836,-0.0191 0.1012878,-0.02894 0.081378,-0.0239 0.1604433,-0.04896 0.2377096,-0.07545 0.016722,-0.0057 0.033618,-0.0112 0.050128,-0.01705 0.055017,-0.01948 0.1090056,-0.03969 0.1617477,-0.06046 0.726305,-0.286017 1.2723918,-0.692306 1.3787252,-1.265556 h -0.00106 c 0.010821,-0.05817 0.017039,-0.117366 0.017039,-0.177767 V 5.6297003 c 0,-0.04936 -0.0046,-0.09774 -0.01188,-0.145727 -0.00113,-0.023182 -0.0053,-0.046116 -0.012409,-0.06821 C 9.3926024,5.1891773 9.2646869,4.9809523 9.0903027,4.8053903 8.8621869,4.5757353 8.5521984,4.3882323 8.182348,4.2312653 7.4426444,3.9173292 6.4528779,3.7336212 5.3577146,3.7336212 Z m 0,0.5291661 c 1.0348939,0 1.9671956,0.178797 2.6174092,0.454753 0.3251094,0.137978 0.5784823,0.299898 0.7384573,0.460954 0.1105588,0.111305 0.1755352,0.2166 0.2051553,0.31781 -0.079571,0.261413 -0.4309533,0.581607 -1.0392119,0.821138 -0.6444906,0.2538 -1.5374117,0.415996 -2.5218099,0.415996 -0.9844193,0 -1.8747316,-0.162187 -2.5192275,-0.415996 -0.6082612,-0.239539 -0.9615328,-0.559723 -1.0412783,-0.821138 0.02962,-0.10121 0.094591,-0.206505 0.2051553,-0.31781 0.159975,-0.161056 0.413348,-0.322976 0.7384547,-0.460954 0.6502162,-0.275956 1.5819993,-0.454753 2.6168958,-0.454753 z m -3.5796272,2.069125 c 0.2326931,0.187815 0.5292831,0.345256 0.8650631,0.47749 0.726313,0.286029 1.6728176,0.453202 2.7145641,0.453202 1.0417228,0 1.9887724,-0.167185 2.7150801,-0.453202 0.3352324,-0.132015 0.6320949,-0.289039 0.8650631,-0.476457 v 0.912606 c -0.00299,0.00814 -0.00557,0.016418 -0.00775,0.02481 -0.049911,0.269043 -0.406093,0.615398 -1.050581,0.869197 -0.6444906,0.253799 -1.5374117,0.415996 -2.5218099,0.415996 -0.9844193,0 -1.8747316,-0.162188 -2.5192275,-0.415996 -0.6444955,-0.253812 -1.0027652,-0.600156 -1.0526497,-0.869202 -0.00218,-0.00839 -0.00476,-0.016672 -0.00775,-0.02481 z m 0,1.822111 c 0.2326931,0.187815 0.5292831,0.345773 0.8650631,0.478007 0.726313,0.286029 1.6728176,0.452685 2.7145641,0.452685 1.0417255,0 1.9887724,-0.166667 2.7150801,-0.452685 0.3352324,-0.132015 0.6320949,-0.289555 0.8650631,-0.476974 v 0.881084 c -0.00797,0.018226 -0.013867,0.037293 -0.017568,0.05684 -0.049911,0.269045 -0.4081598,0.614886 -1.0526477,0.868684 C 7.2231223,10.215463 6.3327835,10.37766 5.3483853,10.37766 c -0.9585748,0 -1.8289005,-0.153754 -2.4690995,-0.3963577 -0.6402017,-0.242606 -1.018929,-0.580122 -1.0934727,-0.845427 -0.00233,-0.00647 -0.00492,-0.01285 -0.00775,-0.01912 z m 7.1597704,1.814359 v 0.8645467 c 0,0.02722 -0.00238,0.05461 -0.00725,0.08216 h -5.291e-4 c -0.045231,0.243821 -0.3419819,0.549164 -0.8769482,0.793234 -0.025797,0.01168 -0.051253,0.02326 -0.078034,0.03462 -0.00439,0.0019 -0.009,0.0033 -0.013441,0.0052 -0.036513,0.01534 -0.073387,0.03075 -0.1116198,0.04548 -0.016589,0.0064 -0.033734,0.01233 -0.050644,0.0186 -0.018336,0.0068 -0.036602,0.01401 -0.055293,0.02067 -0.024368,0.0087 -0.049445,0.01689 -0.074414,0.02532 -0.029477,0.01 -0.058584,0.01986 -0.088884,0.02946 -0.012118,0.0038 -0.024421,0.0071 -0.03669,0.01085 -0.024844,0.0077 -0.049578,0.01583 -0.07493,0.02325 -0.024262,0.0071 -0.049173,0.0138 -0.073898,0.02067 -0.026792,0.0074 -0.053806,0.01506 -0.081132,0.02222 -0.02458,0.0064 -0.049408,0.01239 -0.074414,0.0186 -0.017859,0.0044 -0.035676,0.0091 -0.053745,0.01344 -0.031845,0.0076 -0.064151,0.01498 -0.096634,0.02222 -0.023892,0.0053 -0.048128,0.01038 -0.072348,0.0155 -0.026432,0.0056 -0.052774,0.01121 -0.079581,0.01654 -0.026009,0.0052 -0.052179,0.01006 -0.078547,0.01499 -0.026352,0.0049 -0.052882,0.0098 -0.079584,0.01447 -0.023257,0.0041 -0.04677,0.008 -0.070279,0.01188 -0.092652,0.01531 -0.1868249,0.0291 -0.2831862,0.04134 -0.013018,0.0017 -0.026194,0.0031 -0.039275,0.0047 -0.039156,0.0048 -0.078632,0.0097 -0.1183402,0.01395 -0.0195,0.0021 -0.039275,0.0037 -0.058909,0.0057 -0.1012799,0.01009 -0.2040546,0.0188 -0.3085095,0.02532 -0.0046,2.91e-4 -0.00934,2.37e-4 -0.013943,5.29e-4 -0.1135856,0.0069 -0.2284121,0.01204 -0.3451992,0.01447 -0.060804,0.0013 -0.1223989,0.0021 -0.1839675,0.0021 -0.061389,0 -0.1223089,-8.2e-4 -0.1829355,-0.0021 -0.1215126,-0.0025 -0.241681,-0.0076 -0.3596667,-0.01499 -7.937e-4,-4.2e-5 -0.00132,4.3e-5 -0.00212,0 -0.1757204,-0.01101 -0.3469005,-0.02763 -0.5131462,-0.04858 -5.291e-4,-6.3e-5 -0.00159,6.4e-5 -0.00212,0 C 3.7399806,12.064254 3.2410215,11.940815 2.8383362,11.782233 2.193843,11.528425 1.8355733,11.18415 1.7856888,10.915103 h -5.292e-4 c -0.00495,-0.02755 -0.00722,-0.05495 -0.00722,-0.08217 V 9.9838893 c 0.2442104,0.1949917 0.5573898,0.3564427 0.9136406,0.4914427 0.7183305,0.272213 1.6422873,0.432015 2.6566839,0.432015 1.0417254,0 1.9882564,-0.167185 2.7145641,-0.453202 C 8.4032834,10.320075 8.7035961,10.15968 8.93771,9.9683863 Z"
     fill="#000000"
     fill-rule="evenodd"
     stroke-width="1"
     stroke-linecap="round"
     stroke-linejoin="round"
     id="path1"
     sodipodi:nodetypes="sccsscccccccccccccccccscccccccccsccccscccccccccccccccccscccccccssccssssssscssscccsccsscccsscccccssscccsssccccsccccccsccccscccccccccccccccccscccccsccsccsscc"
     inkscape:label="database" />
  <g
     inkscape:groupmode="layer"
     id="layer2"
     inkscape:label="Schlüsselloch"
     style="fill:#ff0000">
    <path
       id="path7"
       style="fill:#000000;fill-opacity:1;stroke:#000000;stroke-width:0;stroke-dasharray:none;stroke-opacity:1;paint-order:fill markers stroke"
       d="M 5.3242188 7.9824219 A 1.0717087 1.0275146 0 0 0 4.2519531 9.0097656 A 1.0717087 1.0275146 0 0 0 4.7460938 9.8769531 C 4.7426381 9.9025988 4.7402344 9.9284559 4.7402344 9.9550781 L 4.7402344 10.650391 C 4.7402344 10.970207 4.998543 11.228516 5.3183594 11.228516 C 5.6381757 11.228516 5.8945312 10.970207 5.8945312 10.650391 L 5.8945312 9.9550781 C 5.8945312 9.9297651 5.8937541 9.9052945 5.890625 9.8808594 A 1.0717087 1.0275146 0 0 0 6.3945312 9.0097656 A 1.0717087 1.0275146 0 0 0 5.3242188 7.9824219 z " />
  </g>
</svg>
